<?xml version="1.0" encoding="UTF-8" standalone="no"?>
<svg xmlns:svg="http://www.w3.org/2000/svg" xmlns="http://www.w3.org/2000/svg" width="250" height="200" viewBox="-65.339 -36.225 250 200">
<g><polygon points="90.915,75.5 65.915,75.5 65.915,103 90.915,103 90.915,88 "
 style="fill:#cc0000;stroke:#000000;stroke-width:2" /><path d="m 118.415,1 c -3,0 -111.5,0 -111.5,0 4,0 4.5,10.5 4.5,10.5 h 106 c 0,0 -2,-10.5 1,-10.5 z"
 style="fill:#ffffff;stroke:#000000;stroke-width:2" /><rect width="18.5"
 height="15" x="90.915001"
 y="88" style="fill:#ffffff;stroke:#000000;stroke-width:2" /><polygon
 points="100.415,55 27.414,55 27.414,75.5 65.915,75.5 90.915,75.5 100.415,75.5 "
 style="fill:#cc0000;stroke:#000000;stroke-width:2" /><polygon
 points="1.914,117 1.914,131 29.914,131 29.914,117 12.414,117 "
 style="fill:#cc0000;stroke:#000000;stroke-width:2" /><polygon
 points="16.414,75.5 27.414,75.5 27.414,55 100.415,55 100.415,75.5 90.915,75.5 90.915,88 113.915,88 113.915,44 16.414,44 "
 style="fill:#ffffff;stroke:#000000;stroke-width:2" /><polygon
 points="50.414,131 50.414,116 65.915,116 65.915,103 29.914,103 29.914,131 "
 style="fill:#ffffff;stroke:#000000;stroke-width:2" /><polygon
 points="50.414,131 122.915,131 117.915,103 109.415,103 90.915,103 65.915,103 65.915,116 50.414,116 "
 style="fill:#ffffff;stroke:#000000;stroke-width:2" /><rect
 width="17.5" height="14" x="12.414" y="103" style="fill:#cc0000;stroke:#000000;stroke-width:2" /><path
 d="m 126.415,44 c -11.75,-11.75 -9,-32.5 -9,-32.5 l -106,0 c 0,0 -0.25,23.75 -9,32.5 41.333333,0 82.666667,0 124,0 z"
 style="fill:#ffce00;stroke:#000000;stroke-width:2" /></g></svg>
