<?xml version="1.0" encoding="UTF-8" standalone="no"?><svg xmlns:svg="http://www.w3.org/2000/svg" xmlns="http://www.w3.org/2000/svg" width="250" height="200" viewBox="-42 -53 250 200"><path d="M 165.419,11.662 C 155.737,18.148 138.243,23.234 116.773,25.7 113.433,10.981 105.304,1 87.333,1 69.398,1 60.798,10.942 57.151,25.612 36.019,23.115 18.815,18.073 9.246,11.662 3.965,22.837 1,35.32 1,48.5 h 172.666 c 0,-13.18 -2.965,-25.663 -8.247,-36.838 z" style="fill:#cc0000;stroke:#000000;stroke-width:2"/><path d="M 1,48.5 C 1,61.68 3.965,74.162 9.246,85.338 18.814,78.926 36.019,73.885 57.15,71.387 60.799,86.059 69.398,96 87.333,96 c 17.971,0 26.1,-9.98 29.439,-24.701 21.471,2.467 38.967,7.553 48.646,14.039 5.281,-11.176 8.246,-23.658 8.246,-36.838 H 1 z" style="fill:#004c2b;stroke:#000000;stroke-width:2" /><path d="m 100.499,48.5 c 0,7.271933 -5.895066,13.167 -13.166999,13.167 -7.271933,0 -13.167,-5.895067 -13.167,-13.167 0,-7.271933 5.895067,-13.167 13.167,-13.167 7.271933,0 13.166999,5.895067 13.166999,13.167 z" style="fill:#ffce00;stroke:#000000;stroke-width:2"/></svg>
