<?xml version="1.0" encoding="UTF-8" standalone="no"?>
<svg xmlns:svg="http://www.w3.org/2000/svg" xmlns="http://www.w3.org/2000/svg"
 version="1.1" width="250" height="200" viewBox="-36 -60 200 160">
<g style="fill-opacity:1;stroke:#000000;stroke-width:2" > 
<path d="m -28.0895,-35.642147 c 0,0 12.373,31.100001 39.661,59.502 l 31.484,-52.305 c -37.872,-10.82 -71.145,-7.197 -71.145,-7.197 z" style="fill:#cc0000" />
<path d="m 115.0245,14.876853 -31.484,52.303 c 37.871,10.82 71.145,7.199 71.145,7.199 0,0 -12.376,-31.097 -39.661,-59.502 z" style="fill:#cc0000" />
<g style="fill:#ffffff">
<path d="M 98.3345,-0.36714603 C 86.3915,16.365853 79.4325,17.111853 68.5845,10.581853 57.7365,4.051854 55.1415,-2.445146 64.3365,-20.832146 c -2.59,-1.126 -5.18,-2.178 -7.768,-3.148 -11.36,24.08599997 -5.188,31.2049995 6.695,43.402999 8.537,8.762 -1.092,25.727 -11.801,19.279 -10.709,-6.447 -0.915,-19.809 6.795,-15.168 5.141,3.096 -0.615,10.719 -3.613,8.912 2.998,1.807 8.753,-5.816 3.613,-8.912 -7.71,-4.641 -17.504,8.721 -6.795,15.168 10.709,6.447 20.338,-10.518 11.801,-19.279 -11.882,-12.1979995 -18.054,-19.31699903 -6.694,-43.402999 -4.537,-1.703001 -9.058,-3.191001 -13.514,-4.465001 l -31.484,52.305 c 9.249,9.627 20.21,18.945 32.987,26.637 12.778,7.691 26.143,13.018 38.981,16.684 l 31.484,-52.303 C 109.9815,9.6288535 104.4115,4.482854 98.3345,-0.36714603 z" />
<path d="m 68.5845,10.581853 c 10.848,6.529 17.807,5.784 29.75,-10.94899903 -2.057,-1.64299997 -4.168,-3.25399997 -6.348,-4.81800047 -7.75,11.42 -11.777,12.255 -18.758,8.0530005 -6.98,-4.203 -8.129,-8.1520005 -1.664,-20.346001 -2.402,-1.194 -4.813,-2.305 -7.229,-3.354 -9.194,18.387001 -6.598,24.885001 4.249,31.414 z"/>
<path d="m 71.5655,-17.478146 c -6.465,12.1929995 -5.316,16.143 1.664,20.346 6.98,4.2019995 11.008,3.3669995 18.758,-8.0530005 -3.189,-2.289999 -6.498,-4.495999 -9.951,-6.5759985 -3.456,-2.079 -6.954,-3.971002 -10.471,-5.717001 z" />
</g></g></svg>
