<!-- Created with Inkscape (http://www.inkscape.org/) -->
<svg xmlns:inkscape="http://www.inkscape.org/namespaces/inkscape" xmlns:rdf="http://www.w3.org/1999/02/22-rdf-syntax-ns#" xmlns="http://www.w3.org/2000/svg" sodipodi:docname="Neues Dokument 2" height="200" width="250" version="1.1" xmlns:cc="http://creativecommons.org/ns#" xmlns:dc="http://purl.org/dc/elements/1.1/" inkscape:version="0.48.3.1 r9886" xmlns:sodipodi="http://sodipodi.sourceforge.net/DTD/sodipodi-0.dtd">
 <sodipodi:namedview bordercolor="#666666" inkscape:pageshadow="2" inkscape:window-y="-8" pagecolor="#ffffff" inkscape:window-height="716" inkscape:window-maximized="1" inkscape:zoom="2.54" inkscape:window-x="-8" showgrid="false" borderopacity="1.0" inkscape:current-layer="layer1" inkscape:cx="125" inkscape:cy="100" inkscape:window-width="1366" inkscape:pageopacity="0.0" inkscape:document-units="px"/>
 <metadata>
  <rdf:RDF>
   <cc:Work rdf:about="">
    <dc:format>image/svg+xml</dc:format>
    <dc:type rdf:resource="http://purl.org/dc/dcmitype/StillImage"/>
    <dc:title/>
   </cc:Work>
  </rdf:RDF>
 </metadata>
 <g inkscape:label="Ebene 1" inkscape:groupmode="layer" transform="translate(0,-852.36218)">
  <path fill="#C00" inkscape:connector-curvature="0" d="m167,974c-6.83,3.17-34.5,5.67-40.7,0.834,0,9.67-2.08,12.7-5.83,16.5,19.5,2.83,55.8-1.17,61.3-4.41-6.76-3.69-11.9-8.84-14.8-12.9z"/>
  <path fill="#FFF" inkscape:connector-curvature="0" d="m177,920c18.5,8.75,35.8,8.75,38.2,6.75,2.5-2,3.25-4.5,2.75-5.75s-0.371-2.83-8.25,0.75c-9.98,4.53-40.8-13.2-55.5-13.2-14.8,0-21,6.25-24.7,18.6,1.8,0.586,3.46,1.23,4.96,1.9,4.28-20.7,28.5-15.6,42.5-9.01z"/>
  <path fill="#FFF" inkscape:connector-curvature="0" d="m162,932c-11,0-16,5.67-16,5.67s-2.33,2.5-0.666,4.5c1.67,2,3.83,1.17,5.67-0.333,1.83-1.5,9.17-7.17,15.8-0.167,6.67,7,8.67,20.8,20,31.7,11.3,10.8,24,18.7,29.3,11.7,0,0-12.3-0.666-26-16-6.16-6.91-9.75-20-15.5-28.6-3.26-4.91-7.2-8.36-12.7-8.36z"/>
  <path fill="#ffce00" inkscape:connector-curvature="0" d="m215,927c-2.5,2-19.8,2-38.2-6.75-13.9-6.58-38.2-11.7-42.5,9.01,6.52,2.9,10.3,6.4,11.7,8.82,0,0,5-5.67,16-5.67,5.51,0,9.45,3.45,12.7,8.36,25,5.03,36-4.28,40.3-13.8z"/>
  <circle sodipodi:rx="2.8329999" sodipodi:ry="2.8329999" cx="110" cy="102" transform="translate(-4.5031112,850.13767)" sodipodi:cy="102.391" sodipodi:cx="110.223" r="2.83" fill="#FFF"/>
  <path d="m81.4,974v-0.078s-0.002,0.029,0,0.078z" inkscape:connector-curvature="0" stroke="#000" stroke-width="2" fill="#FFF"/>
  <path d="m70.3,974s-0.001-0.01-0.001-0.012c0.001,0.02,0.001,0.053,0.001,0.053v-0.041z" inkscape:connector-curvature="0" stroke="#000" stroke-width="2" fill="#FFF"/>
  <circle sodipodi:rx="2.8329999" sodipodi:ry="2.8329999" cx="110" cy="102" transform="translate(-4.5031112,850.13767)" sodipodi:cy="102.391" sodipodi:cx="110.223" r="2.83" fill="none"/>
  <path fill="#C00" inkscape:connector-curvature="0" d="m109,965c3.14-0.896,5.77-2.99,7.38-5.75,1.07-1.84,1.68-3.98,1.68-6.26,0-3.38-1.35-6.44-3.52-8.69-3.29,4.23-6.69,11.3-5.53,20.7z"/>
  <path fill="#FFF" inkscape:connector-curvature="0" d="m115,944c-2.27-2.35-5.45-3.81-8.98-3.81-6.9,0-12.5,5.6-12.5,12.5s5.6,12.5,12.5,12.5c1.19,0,2.35-0.172,3.44-0.484-1.16-9.45,2.24-16.5,5.53-20.7zm-8.98,11.5c-1.56,0-2.83-1.27-2.83-2.83,0-1.57,1.27-2.83,2.83-2.83s2.83,1.27,2.83,2.83-1.27,2.83-2.83,2.83z"/>
  <path fill="none" inkscape:connector-curvature="0" d="m70.3,974s-0.001-0.01-0.001-0.012c0.001,0.02,0.001,0.053,0.001,0.053v-0.041z"/>
  <path fill="#C00" inkscape:connector-curvature="0" d="m70.3,974s0-0.033-0.001-0.053c-0.005-0.123-0.28-5.91-5.76-5.91-2.21,0-3.5,0.98-4.26,2.16-0.66,1.03-0.906,2.19-1,3.01,3.27,0.584,7.14,0.922,11,1.05v-0.254z"/>
  <path fill="#FFF" inkscape:connector-curvature="0" d="m59.3,974c-0.069,0.594-0.061,1-0.061,1v6.41h11.1v-6.36c-3.87-0.129-7.74-0.467-11-1.05z"/>
  <path fill="#C00" inkscape:connector-curvature="0" d="m70.3,974v0.254c3.9,0.129,7.79,0.043,11.1-0.227-0.001-0.039,0-0.07,0-0.07s-0.223-5.92-5.76-5.92c-2.21,0-3.5,0.979-4.26,2.16-1.06,1.65-1.07,3.5-1.06,3.75,0,0.002,0.001,0.012,0.001,0.012v0.041z"/>
  <path fill="#FFF" inkscape:connector-curvature="0" d="m70.3,975v6.36l11.1-0.002v-6.58-0.008c-3.29,0.27-7.18,0.356-11.1,0.227z"/>
  <path inkscape:connector-curvature="0" fill="#FFF" d="m117,959c-2.16,3.73-6.2,6.24-10.8,6.24-4.15,0-7.82-2.03-10.1-5.15-3.46,3.55-9.29,8.75-15.4,10.9,1.09,1.66,1.17,3.58,1.17,3.58v0.078c0.023,0.637,0.738,5.03,16.2,3.75-15.4,1.28-16.1-3.12-16.2-3.75v6.58l-11.1,0.002h-9s-4.08,3.5,2.75,10.3c6.83,6.83,50.7,5.5,56,0.166,3.75-3.75,5.83-6.83,5.83-16.5s-5.83-12.3-9.34-16.2z"/>
  <path fill="#ffce00" inkscape:connector-curvature="0" d="m187,974c-11.3-10.8-13.3-24.7-20-31.7-6.67-7-14-1.33-15.8,0.167-1.83,1.5-4,2.33-5.67,0.333s0.666-4.5,0.666-4.5c-1.38-2.42-5.2-5.92-11.7-8.82-1.51-0.671-3.16-1.31-4.96-1.9-5.41-1.76-12.1-3.04-20.3-3.28-22.7-0.666-31.3,15.7-40,18-1.71,0.461-3.16,1.1-4.38,1.86-1.53,0.948-2.7,2.08-3.57,3.27-1.97,2.69-2.42,4.68-2.05,6.54,0.667,3.33,4.33,3.67,8,4,3.67,0.334,6.67-6.33,1-6.67,5.67,0.333,2.67,7-1,6.67-3.67-0.333-7.33-0.666-8-4,0,0-0.934,2.12-1.72,3.9-1.36,3.1-2.28,8.22,2.95,13,0.757-1.18,2.05-2.16,4.26-2.16,5.48,0,5.76,5.78,5.76,5.91-0.004-0.256,0.003-2.1,1.06-3.75,0.756-1.18,2.05-2.16,4.26-2.16,2.38-0.002,3.77,1.09,4.59,2.33,6.12-2.15,12-7.35,15.4-10.9-1.51-2.06-2.4-4.6-2.4-7.35,0-6.9,5.6-12.5,12.5-12.5s12.5,5.6,12.5,12.5c0,2.28-0.611,4.42-1.68,6.26,3.51,3.9,9.34,6.57,9.34,16.2,6.17,4.83,33.8,2.33,40.7-0.834-5.17-7.17-11.2-14-15.7-11.5,4.5-2.5,10.5,4.33,15.7,11.5,2.94,4.08,8.04,9.23,14.8,12.9,5.12,2.8,11.2,4.75,18,4.75,15.8,0,16.8-6.5,16.8-6.5-5.33,7-18-0.835-29.3-11.7z"/>
  <path d="m167,974c-6.83,3.17-34.5,5.67-40.7,0.834,0,9.67-2.08,12.7-5.83,16.5,19.5,2.83,55.8-1.17,61.3-4.41-6.76-3.69-11.9-8.84-14.8-12.9z" inkscape:connector-curvature="0" stroke="#000" stroke-width="2" fill="none"/>
  <path d="m70.3,974s0-0.033-0.001-0.053c-0.005-0.123-0.28-5.91-5.76-5.91-2.21,0-3.5,0.98-4.26,2.16-1.14,1.78-1.06,4.01-1.06,4.01v6.41h11.1v-6.62z" inkscape:connector-curvature="0" stroke="#000" stroke-width="2" fill="none"/>
  <path d="m177,920c18.5,8.75,35.8,8.75,38.2,6.75,2.5-2,3.25-4.5,2.75-5.75s-0.371-2.83-8.25,0.75c-9.98,4.53-40.8-13.2-55.5-13.2-14.8,0-21,6.25-24.7,18.6,1.8,0.586,3.46,1.22,4.96,1.9,4.28-20.7,28.5-15.6,42.5-9.01z" inkscape:connector-curvature="0" stroke="#000" stroke-width="2" fill="none"/>
  <path d="m187,974c-11.3-10.8-13.3-24.7-20-31.7-6.67-7-14-1.33-15.8,0.166-1.83,1.5-4,2.33-5.67,0.334s0.666-4.5,0.666-4.5c-1.38-2.42-5.2-5.93-11.7-8.83-1.51-0.672-3.16-1.31-4.96-1.9-5.41-1.76-12.1-3.04-20.3-3.28-22.7-0.667-31.3,15.7-40,18-1.71,0.459-3.16,1.1-4.38,1.86-1.53,0.949-2.7,2.08-3.57,3.27-1.97,2.69-2.42,4.68-2.05,6.54,0.667,3.33,4.33,3.67,8,4,3.67,0.334,6.67-6.33,1-6.67,5.67,0.333,2.67,7-1,6.67-3.67-0.333-7.33-0.666-8-4,0,0-0.934,2.12-1.72,3.9-1.36,3.1-2.28,8.22,2.95,13,0.757-1.18,2.05-2.16,4.26-2.16,5.48,0,5.76,5.78,5.76,5.91-0.004-0.256,0.003-2.1,1.06-3.75,0.756-1.18,2.05-2.16,4.26-2.16,5.54-0.002,5.76,5.92,5.76,5.92v0.078c0.023,0.637,0.738,5.03,16.2,3.75-15.4,1.28-16.1-3.12-16.2-3.75v6.58l-11.1,0.002h-9s-4.08,3.5,2.75,10.3c6.83,6.83,50.7,5.5,56,0.166,3.75-3.75,5.83-6.83,5.83-16.5s-5.83-12.3-9.34-16.2c-2.16,3.73-6.2,6.24-10.8,6.24-6.9,0-12.5-5.6-12.5-12.5s5.6-12.5,12.5-12.5,12.5,5.6,12.5,12.5c0,2.28-0.611,4.42-1.68,6.26,3.51,3.9,9.34,6.57,9.34,16.2,6.17,4.83,33.8,2.33,40.7-0.834-5.17-7.17-11.2-14-15.7-11.5,4.5-2.5,10.5,4.33,15.7,11.5,2.94,4.08,8.04,9.23,14.8,12.9,5.12,2.8,11.2,4.75,18,4.75,15.8,0,16.8-6.5,16.8-6.5-5.33,7-18-0.834-29.3-11.7z" inkscape:connector-curvature="0" stroke="#000" stroke-width="2" fill="none"/>
  <path d="m162,932c-11,0-16,5.67-16,5.67s-2.33,2.5-0.666,4.5c1.67,2,3.83,1.17,5.67-0.334,1.83-1.5,9.17-7.17,15.8-0.166,6.67,7,8.67,20.8,20,31.7,11.3,10.8,24,18.7,29.3,11.7,0,0-12.3-0.666-26-16-6.16-6.91-9.75-20-15.5-28.6-3.26-4.91-7.2-8.36-12.7-8.36z" inkscape:connector-curvature="0" stroke="#000" stroke-width="2" fill="none"/>
  <path d="m215,927c-2.5,2-19.8,2-38.2-6.75-13.9-6.58-38.2-11.7-42.5,9.01,6.52,2.9,10.3,6.4,11.7,8.83,0,0,5-5.67,16-5.67,5.51,0,9.45,3.45,12.7,8.36,25,5.03,36-4.28,40.3-13.8z" inkscape:connector-curvature="0" stroke="#000" stroke-width="2" fill="none"/>
  <path d="m106,940c-6.9,0-12.5,5.6-12.5,12.5s5.6,12.5,12.5,12.5c4.62,0,8.66-2.51,10.8-6.24,1.07-1.84,1.68-3.98,1.68-6.26,0.001-6.9-5.6-12.5-12.5-12.5zm0,15.3c-1.56,0-2.83-1.27-2.83-2.83,0-1.57,1.27-2.83,2.83-2.83s2.83,1.27,2.83,2.83-1.27,2.83-2.83,2.83z" inkscape:connector-curvature="0" stroke="#000" stroke-width="2" fill="none"/>
  <circle sodipodi:rx="2.8329999" sodipodi:ry="2.8329999" stroke-width="2" cx="110" cy="102" transform="translate(-4.5031112,850.13767)" stroke="#000" sodipodi:cy="102.391" sodipodi:cx="110.223" r="2.83" fill="none"/>
  <path d="m81.4,974v-0.078s-0.002,0.029,0,0.078z" inkscape:connector-curvature="0" stroke="#000" stroke-width="2" fill="none"/>
  <path d="m70.3,974s-0.001-0.01-0.001-0.012c0.001,0.02,0.001,0.053,0.001,0.053v-0.041z" inkscape:connector-curvature="0" stroke="#000" stroke-width="2" fill="none"/>
  <path d="m70.3,974v6.62l11.1-0.002v-6.58c-0.002-0.049,0-0.078,0-0.078s-0.223-5.92-5.76-5.92c-2.21,0-3.5,0.979-4.26,2.16-1.06,1.65-1.07,3.5-1.06,3.75,0,0.002,0.001,0.012,0.001,0.012v0.041z" inkscape:connector-curvature="0" stroke="#000" stroke-width="2" fill="none"/>
  <line stroke-width="2" y2="923" x2="70.6" stroke="#000" y1="942" x1="69.1" fill="none"/>
  <line stroke-width="2" y2="922" x2="63.3" stroke="#000" y1="944" x1="64.7" fill="none"/>
  <polyline stroke-linejoin="bevel" transform="translate(-4.5031112,850.13767)" stroke="#000" points="60.1,72.8,65.6,97,42.6,85.3" stroke-width="2" fill="none"/>
  <line stroke-width="2" y2="943" x2="32.1" stroke="#000" y1="954" x1="59.1" fill="none"/>
  <line stroke-width="2" y2="953" x2="32.1" stroke="#000" y1="958" x1="57.3" fill="none"/>
  <line stroke-width="2" y2="973" x2="85.4" stroke="#000" y1="967" x1="80.6" fill="none"/>
  <line stroke-width="2" y2="970" x2="88.9" stroke="#000" y1="964" x1="84.4" fill="none"/>
  <line stroke-width="2" y2="967" x2="93.2" stroke="#000" y1="961" x1="88.1" fill="none"/>
  <line stroke-width="2" y2="984" x2="65.7" stroke="#000" y1="988" x1="61.7" fill="none"/>
  <line stroke-width="2" y2="986" x2="69.6" stroke="#000" y1="992" x1="65.4" fill="none"/>
  <line stroke-width="2" y2="988" x2="73.2" stroke="#000" y1="994" x1="70.2" fill="none"/>
  <line stroke-width="2" y2="989" x2="76.9" stroke="#000" y1="995" x1="74.9" fill="none"/>
  <line stroke-width="2" y2="989" x2="81.2" stroke="#000" y1="995" x1="79.4" fill="none"/>
  <line stroke-width="2" y2="989" x2="85.7" stroke="#000" y1="995" x1="83.2" fill="none"/>
  <line stroke-width="2" y2="989" x2="89.9" stroke="#000" y1="995" x1="87.2" fill="none"/>
  <line stroke-width="2" y2="989" x2="94.1" stroke="#000" y1="996" x1="91.6" fill="none"/>
  <line stroke-width="2" y2="988" x2="98.1" stroke="#000" y1="995" x1="96.1" fill="none"/>
  <line stroke-width="2" y2="988" x2="102" stroke="#000" y1="995" x1="101" fill="none"/>
  <line stroke-width="2" y2="988" x2="106" stroke="#000" y1="995" x1="104" fill="none"/>
  <line stroke-width="2" y2="988" x2="110" stroke="#000" y1="995" x1="109" fill="none"/>
  <line stroke-width="2" y2="987" x2="113" stroke="#000" y1="994" x1="113" fill="none"/>
  <line stroke-width="2" y2="985" x2="117" stroke="#000" y1="992" x1="118" fill="none"/>
  <line stroke-width="2" y2="982" x2="120" stroke="#000" y1="988" x1="123" fill="none"/>
  <line stroke-width="2" y2="978" x2="119" stroke="#000" y1="980" x1="125" fill="none"/>
  <line stroke-width="2" y2="974" x2="120" stroke="#000" y1="976" x1="126" fill="none"/>
  <line stroke-width="2" y2="971" x2="120" stroke="#000" y1="972" x1="126" fill="none"/>
  <line stroke-width="2" y2="968" x2="118" stroke="#000" y1="968" x1="125" fill="none"/>
  <line stroke-width="2" y2="964" x2="115" stroke="#000" y1="964" x1="122" fill="none"/>
 </g>
</svg>
