<?xml version="1.0" encoding="UTF-8" standalone="no"?>
<svg
   xmlns:svg="http://www.w3.org/2000/svg"
   xmlns="http://www.w3.org/2000/svg"
   version="1.1"
   width="250"
   height="200"
   viewBox="-39 -52 250 200">
<path style="fill:#ffffff"
     d="M 99.637,54.687 C 99.549,53.243 99.5,51.718 99.5,50.091 c 0,-1.626 0.049,-3.151 0.137,-4.596 0.217,-3.556 0.699,-6.576 1.416,-9.14 0.988,-3.538 2.428,-6.211 4.26,-8.198 L 96.1,23.065 c -0.316,-0.219 -0.656,-0.409 -1.023,-0.565 -2.92,-1.249 -6.299,0.107 -7.547,3.027 -1.248,2.92 0.107,6.299 3.027,7.547 0.002,0.001 0.006,0.002 0.008,0.003 0.389,0.08 0.758,0.196 1.107,0.346 -0.373,-0.076 -0.742,-0.19 -1.107,-0.346 -0.002,-10e-4 -0.006,-0.002 -0.008,-0.003 -3.111,-0.637 -6.15,1.369 -6.787,4.479 -0.637,3.111 1.369,6.15 4.48,6.787 0.002,0 0.002,0 0.004,0 0.396,0 0.785,0.041 1.158,0.118 -0.381,0 -0.77,-0.038 -1.158,-0.118 H 88.25 c -3.176,0 -5.75,2.574 -5.75,5.75 0,3.176 2.575,5.75 5.75,5.75 h 0.004 c 0.389,-0.08 0.777,-0.117 1.158,-0.117 -0.373,0.076 -0.762,0.117 -1.158,0.117 -0.002,0 -0.002,0 -0.004,0 -3.111,0.637 -5.117,3.676 -4.48,6.787 0.637,3.111 3.676,5.117 6.787,4.48 0.002,-0.002 0.006,-0.002 0.008,-0.004 0.365,-0.154 0.734,-0.27 1.107,-0.346 -0.35,0.15 -0.719,0.266 -1.107,0.346 -0.002,0.002 -0.006,0.002 -0.008,0.004 -2.92,1.248 -4.275,4.627 -3.027,7.547 1.248,2.92 4.627,4.275 7.547,3.027 0.367,-0.156 0.707,-0.348 1.023,-0.566 l 9.213,-5.09 c -1.832,-1.988 -3.271,-4.66 -4.26,-8.199 -0.717,-2.563 -1.199,-5.582 -1.416,-9.139 z"
     /><path
     d="m 83.77,62.628 c -0.637,-3.111 1.369,-6.15 4.48,-6.787 0.002,0 0.002,0 0.004,0 -0.002,0 -0.002,0 -0.004,0 -3.176,0 -5.75,-2.574 -5.75,-5.75 0,-3.176 2.575,-5.75 5.75,-5.75 0.002,0 0.002,0 0.004,0 -0.002,0 -0.002,0 -0.004,0 -3.111,-0.637 -5.117,-3.675 -4.48,-6.787 0.455,-2.222 2.137,-3.874 4.195,-4.408 C 81.258,33.245 63.253,32.929 55,27.091 c -10.25,-7.25 -0.5,-14.75 -0.5,-14.75 -4,-4 -21.75,-6 -21.75,11.75 0,6.816 2.102,11.2 5.215,14.042 4.993,4.558 12.588,5.15 18.285,5.458 C 50.553,43.283 42.958,42.691 37.965,38.133 21.465,32.133 1,37.841 1,50.091 1,62.341 21.465,68.05 37.965,62.05 42.958,57.491 50.553,56.9 56.25,56.591 c -5.697,0.309 -13.292,0.9 -18.285,5.459 -3.113,2.842 -5.215,7.225 -5.215,14.041 0,17.75 17.75,15.75 21.75,11.75 0,0 -9.75,-7.5 0.5,-14.75 8.254,-5.838 26.262,-6.152 32.965,-6.055 -2.056,-0.533 -3.74,-2.185 -4.195,-4.408 z"
     style="fill:#ffce00" /><path
     d="m 144,25.341 c -1.781,0 -5.795,1.331 -9.994,1.654 -8.781,3.802 -14.756,12.918 -14.756,23.096 0,10.178 5.975,19.295 14.756,23.096 4.199,0.324 8.213,1.654 9.994,1.654 13.668,0 24.75,-11.081 24.75,-24.75 0,-13.669 -11.082,-24.75 -24.75,-24.75 z m 0,30.5 c -3.176,0 -5.75,-2.574 -5.75,-5.75 0,-3.176 2.574,-5.75 5.75,-5.75 3.176,0 5.75,2.574 5.75,5.75 0,3.176 -2.574,5.75 -5.75,5.75 z"
     style="fill:#702200" /><path
     d="m 168.75,50.091 c 0,13.669 -11.082,24.75 -24.75,24.75 -1.781,0 -5.795,-1.33 -9.994,-1.654 -8.781,-3.801 -14.756,-12.918 -14.756,-23.096 0,-10.178 5.975,-19.294 14.756,-23.096 4.199,-0.323 8.213,-1.654 9.994,-1.654 13.668,0 24.75,11.081 24.75,24.75 0,0 10.5,-0.25 10.5,-10.25 0,-22.5 -27.5,-24.25 -36.029,-23.187 0.932,-1.387 1.529,-3.243 1.529,-5.563 0,-14.25 -24,-13.25 -24,2 0,4.466 0.867,7.577 2.275,9.709 -14,-0.326 -23.525,3.61 -23.525,27.291 0,23.68 9.525,27.617 23.525,27.291 -1.408,2.133 -2.275,5.242 -2.275,9.709 0,15.25 24,16.25 24,2 0,-2.32 -0.598,-4.176 -1.529,-5.563 8.529,1.063 36.029,-0.688 36.029,-23.188 0,-9.999 -10.5,-10.249 -10.5,-10.249 z"
     style="fill:#cc0000" /><circle
     cx="144"
     cy="50.091"
     r="5.75"
     style="fill:#ffce00" /><path
     d="m 101.053,36.355 c 0.988,-3.538 2.428,-6.211 4.26,-8.198 L 96.1,23.065 c -0.316,-0.219 -0.656,-0.409 -1.023,-0.565 -2.92,-1.249 -6.299,0.107 -7.547,3.027 -1.248,2.92 0.107,6.299 3.027,7.547 0.002,0.001 0.006,0.002 0.008,0.003 0.389,0.08 0.758,0.196 1.107,0.346 l 9.381,2.932 z"
     style="fill:none;stroke:#000000;stroke-width:2" /><path
     d="m 99.637,45.495 c 0.217,-3.556 0.699,-6.576 1.416,-9.14 l -9.381,-2.932 c -0.373,-0.076 -0.742,-0.19 -1.107,-0.346 -0.002,-10e-4 -0.006,-0.002 -0.008,-0.003 -3.111,-0.637 -6.15,1.369 -6.787,4.479 -0.637,3.111 1.369,6.15 4.48,6.787 0.002,0 0.002,0 0.004,0 0.396,0 0.785,0.041 1.158,0.118 l 10.225,1.037 z"
     style="fill:none;stroke:#000000;stroke-width:2" /><path
     d="m 91.672,66.759 c -0.35,0.15 -0.719,0.266 -1.107,0.346 -0.002,0.002 -0.006,0.002 -0.008,0.004 -2.92,1.248 -4.275,4.627 -3.027,7.547 1.248,2.92 4.627,4.275 7.547,3.027 0.367,-0.156 0.707,-0.348 1.023,-0.566 l 9.213,-5.09 c -1.832,-1.988 -3.271,-4.66 -4.26,-8.199 l -9.381,2.931 z"
     style="fill:none;stroke:#000000;stroke-width:2" /><path
     d="m 101.053,63.828 c -0.717,-2.564 -1.199,-5.584 -1.416,-9.141 l -10.225,1.037 c -0.373,0.076 -0.762,0.117 -1.158,0.117 -0.002,0 -0.002,0 -0.004,0 -3.111,0.637 -5.117,3.676 -4.48,6.787 0.637,3.111 3.676,5.117 6.787,4.48 0.002,-0.002 0.006,-0.002 0.008,-0.004 0.365,-0.154 0.734,-0.27 1.107,-0.346 l 9.381,-2.93 z"
     style="fill:none;stroke:#000000;stroke-width:2" /><path
     d="M 99.637,54.687 C 99.549,53.243 99.5,51.718 99.5,50.091 c 0,-1.626 0.049,-3.151 0.137,-4.596 L 89.412,44.459 c -0.381,0 -0.77,-0.038 -1.158,-0.118 -0.002,0 -0.002,0 -0.004,0 -3.176,0 -5.75,2.574 -5.75,5.75 0,3.176 2.575,5.75 5.75,5.75 0.002,0 0.002,0 0.004,0 0.389,-0.08 0.777,-0.117 1.158,-0.117 l 10.225,-1.037 z"
     style="fill:none;stroke:#000000;stroke-width:2" /><path
     d="m 83.77,62.628 c -0.637,-3.111 1.369,-6.15 4.48,-6.787 0.002,0 0.002,0 0.004,0 -0.002,0 -0.002,0 -0.004,0 -3.176,0 -5.75,-2.574 -5.75,-5.75 0,-3.176 2.575,-5.75 5.75,-5.75 0.002,0 0.002,0 0.004,0 -0.002,0 -0.002,0 -0.004,0 -3.111,-0.637 -5.117,-3.675 -4.48,-6.787 0.455,-2.222 2.137,-3.874 4.195,-4.408 C 81.258,33.245 63.253,32.929 55,27.091 c -10.25,-7.25 -0.5,-14.75 -0.5,-14.75 -4,-4 -21.75,-6 -21.75,11.75 0,6.816 2.102,11.2 5.215,14.042 4.993,4.558 12.588,5.15 18.285,5.458 C 50.553,43.283 42.958,42.691 37.965,38.133 21.465,32.133 1,37.841 1,50.091 1,62.341 21.465,68.05 37.965,62.05 42.958,57.491 50.553,56.9 56.25,56.591 c -5.697,0.309 -13.292,0.9 -18.285,5.459 -3.113,2.842 -5.215,7.225 -5.215,14.041 0,17.75 17.75,15.75 21.75,11.75 0,0 -9.75,-7.5 0.5,-14.75 8.254,-5.838 26.262,-6.152 32.965,-6.055 -2.056,-0.533 -3.74,-2.185 -4.195,-4.408 z"
     style="fill:none;stroke:#000000;stroke-width:2" /><path
     d="M 134.006,73.187 C 125.225,69.386 119.25,60.269 119.25,50.091 c 0,-10.178 5.975,-19.294 14.756,-23.096 -4.127,0.317 -8.436,-0.34 -10.98,-4.194 -14,-0.326 -23.525,3.61 -23.525,27.291 0,23.68 9.525,27.617 23.525,27.291 2.545,-3.856 6.853,-4.512 10.98,-4.196 z"
     style="fill:none;stroke:#000000;stroke-width:2" /><path
     d="m 144,25.341 c -1.781,0 -5.795,1.331 -9.994,1.654 -8.781,3.802 -14.756,12.918 -14.756,23.096 0,10.178 5.975,19.295 14.756,23.096 4.199,0.324 8.213,1.654 9.994,1.654 13.668,0 24.75,-11.081 24.75,-24.75 0,-13.669 -11.082,-24.75 -24.75,-24.75 z m 0,30.5 c -3.176,0 -5.75,-2.574 -5.75,-5.75 0,-3.176 2.574,-5.75 5.75,-5.75 3.176,0 5.75,2.574 5.75,5.75 0,3.176 -2.574,5.75 -5.75,5.75 z"
     style="fill:none;stroke:#000000;stroke-width:2" /><path
     d="m 144,74.841 c -1.781,0 -5.795,-1.33 -9.994,-1.654 -4.127,-0.316 -8.436,0.34 -10.98,4.195 -1.408,2.133 -2.275,5.242 -2.275,9.709 0,15.25 24,16.25 24,2 0,-2.32 -0.598,-4.176 -1.529,-5.563 -3.285,-4.891 -10.721,-3.949 -10.721,3.063 0,-7.012 7.436,-7.953 10.721,-3.063 8.529,1.063 36.029,-0.688 36.029,-23.188 0,-10 -10.5,-10.25 -10.5,-10.25 C 168.75,63.76 157.668,74.841 144,74.841 z"
     style="fill:none;stroke:#000000;stroke-width:2" /><path
     d="m 179.25,39.841 c 0,-22.5 -27.5,-24.25 -36.029,-23.187 -3.285,4.891 -10.721,3.949 -10.721,-3.063 0,7.012 7.436,7.954 10.721,3.063 0.932,-1.387 1.529,-3.243 1.529,-5.563 0,-14.25 -24,-13.25 -24,2 0,4.466 0.867,7.577 2.275,9.709 2.545,3.854 6.854,4.512 10.98,4.194 4.199,-0.323 8.213,-1.654 9.994,-1.654 13.668,0 24.75,11.081 24.75,24.75 0.001,10e-4 10.501,-0.249 10.501,-10.249 z"
     style="fill:none;stroke:#000000;stroke-width:2" /><circle
     cx="144"
     cy="50.091"
     r="5.75"
     style="fill:none;stroke:#000000;stroke-width:2" /></svg>
